<svg width="56" height="58" viewBox="0 0 56 58" fill="none" xmlns="http://www.w3.org/2000/svg">
<path d="M12.8192 26.7188C14.1937 26.714 15.5529 27.013 16.8036 27.5953C18.0544 28.1776 19.1671 29.0295 20.0654 30.0924C22.0691 32.3202 23.1455 35.2575 23.0665 38.2821C23.1516 41.3219 22.0752 44.2761 20.0654 46.5189C19.1644 47.5755 18.0502 48.4203 16.7994 48.9951C15.5485 49.5699 14.1907 49.8611 12.8192 49.8486C10.0465 49.8486 7.91694 48.9577 6.43068 47.1759V57.9969H0V27.332H6.43147V29.3916C7.91774 27.6097 10.047 26.7188 12.8192 26.7188ZM7.84621 42.1804C8.33517 42.6607 8.91334 43.0361 9.54659 43.2844C10.1798 43.5327 10.8554 43.6488 11.5333 43.626C12.205 43.6515 12.8748 43.5364 13.5015 43.2878C14.1281 43.0392 14.6984 42.6624 15.1774 42.1804C15.6714 41.6693 16.056 41.0588 16.3068 40.3877C16.5576 39.7166 16.6691 38.9996 16.6342 38.2821C16.669 37.5646 16.5573 36.8475 16.3064 36.1764C16.0555 35.5053 15.6707 34.8949 15.1766 34.3838C14.6976 33.9018 14.1273 33.525 13.5007 33.2764C12.874 33.0278 12.2042 32.9127 11.5325 32.9382C10.8546 32.9154 10.1791 33.0315 9.5458 33.2798C8.91254 33.5281 8.33438 33.9035 7.84541 34.3838C7.36332 34.9016 6.98936 35.5143 6.74628 36.1844C6.50321 36.8546 6.3961 37.5683 6.43147 38.2821C6.3962 38.996 6.50344 39.7097 6.74665 40.3799C6.98986 41.05 7.36397 41.6626 7.84621 42.1804ZM31.8132 49.2379H25.3825V27.3328H31.814L31.8132 49.2379ZM47.8911 38.1115L55.5664 49.2379H48.1923L44.2049 43.4546L40.2174 49.2379H32.8433L40.517 38.1115L33.1 27.3328H40.4741L44.2041 32.7652L47.934 27.3328H55.3057L47.8911 38.1115Z" fill="#242424"/>
<path d="M41.3655 0H35.5938V5.89778H41.3655V0Z" fill="#7AC943"/>
<path d="M37.0374 7.37207H31.2656V13.2699H37.0374V7.37207Z" fill="#FF3C3C"/>
<path d="M39.9222 18.1846H35.5938V22.6075H39.9222V18.1846Z" fill="#FF931E"/>
<path d="M32.228 18.1846H23.5703V25.5564H32.228V18.1846Z" fill="#1A61AF"/>
</svg>
